# xmcd
#
# Track frame offsets: 
#        150
#        10072
#        20295
#        31825
#        42382
#        59362
#        68565
#        80867
#        92847
#
# Disc length: 1380 seconds
#
# Revision: 2
# Processed by: cddbd v1.4PL0 Copyright (c) Steve Scherf et al.
# Submitted via: ExactAudioCopy v0.90b3
#
DISCID=69056209
DTITLE=Chet Atkins, Floyd Cramer, Boots Randolph - Chet, Floyd and Boots
DYEAR=1987
DGENRE=Country
TTITLE0=Hot Mocking Bird
TTITLE1=Piano Roll Rock
TTITLE2=Big Daddy
TTITLE3=Oh Lonesome Me
TTITLE4=Georgia On My Mind
TTITLE5=Yakety Sax
TTITLE6=From Nashville With Love
TTITLE7=Cast Your Fate To The Wind
TTITLE8=Temptation
EXTD=
EXTT0=
EXTT1=
EXTT2=
EXTT3=
EXTT4=
EXTT5=
EXTT6=
EXTT7=
EXTT8=
PLAYORDER=
